<svg xmlns="http://www.w3.org/2000/svg" width="51" height="51" viewBox="0 0 51 51"><g transform="translate(6509 -288)"><rect width="51" height="51" rx="6" transform="translate(-6509 288)" fill="#fff"/><rect width="51" height="51" transform="translate(-6509 288)" fill="none"/><path d="M6,0H16.949a0,0,0,0,1,0,0V51a0,0,0,0,1,0,0H6a6,6,0,0,1-6-6V6A6,6,0,0,1,6,0Z" transform="translate(-6509 288)" fill="#0052b4"/><path d="M0,0H10.949a6,6,0,0,1,6,6V45a6,6,0,0,1-6,6H0a0,0,0,0,1,0,0V0A0,0,0,0,1,0,0Z" transform="translate(-6474.979 288)" fill="#d80027"/></g></svg>