<svg xmlns="http://www.w3.org/2000/svg" width="52" height="52" viewBox="0 0 52 52"><path d="M0,0H46a6,6,0,0,1,6,6V46a6,6,0,0,1-6,6H0a0,0,0,0,1,0,0V0A0,0,0,0,1,0,0Z" fill="#d80027"/><path d="M19.971,0V52H0V0Z" fill="#6da544"/><circle cx="9.75" cy="9.75" r="9.75" transform="translate(10.221 16.25)" fill="#ffda44"/><path d="M142.638,208v6.094a5.484,5.484,0,0,0,10.969,0V208Z" transform="translate(-128.151 -186.875)" fill="#d80027"/><path d="M180.466,248.265a1.83,1.83,0,0,1-1.828-1.828V244h3.656v2.438A1.83,1.83,0,0,1,180.466,248.265Z" transform="translate(-160.495 -219.218)" fill="#f0f0f0"/></svg>