<?xml version="1.0" encoding="utf-8"?>
<!-- Generator: Adobe Illustrator 25.0.0, SVG Export Plug-In . SVG Version: 6.00 Build 0)  -->
<svg version="1.1" id="Layer_1" xmlns="http://www.w3.org/2000/svg" xmlns:xlink="http://www.w3.org/1999/xlink" x="0px" y="0px"
	 viewBox="0 0 52 52" style="enable-background:new 0 0 52 52;" xml:space="preserve" width="52" height="51">
<style type="text/css">
	.st0{fill:#D80027;}
	.st1{fill:#6DA544;}
	.st2{fill:#FFDA44;}
	.st3{fill:#F0F0F0;}
</style>
<g>
	<path class="st0" d="M46,0H20v52h26c3.3,0,6-2.7,6-6V6C52,2.7,49.3,0,46,0z"/>
	<path class="st1" d="M6,0C2.7,0,0,2.7,0,6v40c0,3.3,2.7,6,6,6h14V0H6z"/>
</g>
<circle class="st2" cx="20" cy="26" r="9.8"/>
<path class="st0" d="M14.5,21.1v6.1c0,3,2.5,5.5,5.5,5.5s5.5-2.5,5.5-5.5v-6.1H14.5z"/>
<path class="st3" d="M20,29c-1,0-1.8-0.8-1.8-1.8v-2.4h3.7v2.4C21.8,28.2,21,29,20,29z"/>
</svg>
