<svg xmlns="http://www.w3.org/2000/svg" width="52" height="52" viewBox="0 0 52 52"><rect width="52" height="52" rx="6" fill="#d80027"/><path d="M93.245,167.43l1.985,6.108h6.423l-5.2,3.775,1.985,6.108-5.2-3.775-5.2,3.775,1.985-6.108-5.2-3.775H91.26Z" transform="translate(-76.221 -150.425)" fill="#ffda44"/><path d="M245.659,314.415,243.711,313l-1.948,1.416.744-2.291-1.948-1.416h2.409l.744-2.291.745,2.291h2.408l-1.948,1.416Z" transform="translate(-216.126 -277.094)" fill="#ffda44"/><path d="M285.057,265.789h-2.408l-.744,2.291-.744-2.291h-2.409l1.949-1.416-.744-2.29L281.9,263.5l1.948-1.416-.744,2.291Z" transform="translate(-250.44 -235.465)" fill="#ffda44"/><path d="M285.058,193.161l-1.948,1.416.744,2.29-1.948-1.415-1.949,1.416.744-2.291-1.949-1.416h2.409l.744-2.291.744,2.291Z" transform="translate(-250.441 -171.485)" fill="#ffda44"/><path d="M245.661,144.535l-.744,2.291,1.948,1.416h-2.408l-.744,2.291-.744-2.291H240.56l1.948-1.416-.744-2.291,1.948,1.416Z" transform="translate(-216.128 -129.856)" fill="#ffda44"/></svg>