<svg xmlns="http://www.w3.org/2000/svg" width="1601.806" height="866.662" viewBox="0 0 1601.806 866.662"><defs><style>.a{opacity:0.6;}.b{fill:#f9f9f9;}.c{opacity:0.22;}.d,.f{fill:none;stroke:#c2c2c2;stroke-miterlimit:10;}.d{stroke-width:2px;}.e{opacity:0.3;}.f{stroke-width:0.75px;}.g{opacity:0.2;}</style></defs><g class="a" transform="translate(1.26 1.155)"><path class="b" d="M0,0H1600V865.174H0Z"/><g class="c" transform="translate(1282.387 0)"><path class="d" d="M748.8,422.152v33.3l28.8,16.652,28.863-16.652v-33.3L777.6,405.5Z" transform="translate(-691.136 -338.955)"/><path class="d" d="M702.1,341.552v33.242l28.863,16.652,28.8-16.652V341.552l-28.8-16.652Z" transform="translate(-615.635 -208.586)"/><path class="d" d="M608.6,287.552v33.3l28.863,16.652,28.8-16.652v-33.3l-28.8-16.652Z" transform="translate(-464.471 -121.344)"/><path class="d" d="M608.6,395.552v33.3l28.863,16.59,28.8-16.59v-33.3l-28.8-16.652Z" transform="translate(-464.471 -295.889)"/><path class="d" d="M561.9,314.252v33.3l28.8,16.59,28.8-16.59v-33.3L590.7,297.6Z" transform="translate(-388.908 -164.449)"/><path class="d" d="M515.1,287.552v33.3l28.8,16.652,28.863-16.652v-33.3L543.9,270.9Z" transform="translate(-313.307 -121.344)"/><path class="d" d="M561.9,368.152v33.3l28.8,16.652,28.8-16.652v-33.3L590.7,351.5Z" transform="translate(-388.908 -251.652)"/><path class="d" d="M748.8,206.952v33.241l28.8,16.652,28.863-16.652V206.952L777.6,190.3Z" transform="translate(-691.136 9.026)"/><path class="d" d="M702.1,233.552v33.3l28.863,16.652,28.8-16.652v-33.3l-28.8-16.652Z" transform="translate(-615.635 -34.041)"/><path class="d" d="M655.3,206.252v33.3l28.8,16.652,28.863-16.652v-33.3L684.1,189.6Z" transform="translate(-539.972 10.096)"/><path class="d" d="M655.3,314.252v33.3l28.8,16.59,28.863-16.59v-33.3L684.1,297.6Z" transform="translate(-539.972 -164.449)"/><path class="d" d="M515.1,395.552v33.3l28.8,16.59,28.863-16.59v-33.3L543.9,378.9Z" transform="translate(-313.307 -295.889)"/><path class="d" d="M468.4,422.152v33.3l28.863,16.652,28.8-16.652v-33.3l-28.8-16.652Z" transform="translate(-237.806 -338.955)"/><path class="d" d="M702.1,449.452v33.3l28.863,16.652,28.8-16.652v-33.3l-28.8-16.652Z" transform="translate(-615.635 -383.092)"/><path class="d" d="M608.6,449.452v33.3l28.863,16.652,28.8-16.652v-33.3l-28.8-16.652Z" transform="translate(-464.471 -383.092)"/><path class="d" d="M795.6,503.452v33.3l28.863,16.652,28.8-16.652v-33.3l-28.8-16.652Z" transform="translate(-766.799 -470.395)"/><path class="d" d="M748.8,530.152v33.242l28.8,16.652,28.863-16.652V530.152L777.6,513.5Z" transform="translate(-691.136 -513.5)"/><path class="d" d="M795.6,395.552v33.3l28.863,16.59,28.8-16.59v-33.3l-28.8-16.652Z" transform="translate(-766.799 -295.889)"/><path class="d" d="M842.3,314.252v33.3l28.8,16.59,28.863-16.59v-33.3L871.1,297.6Z" transform="translate(-842.3 -164.449)"/><path class="d" d="M421.6,449.452v33.3l28.8,16.652,28.863-16.652v-33.3L450.4,432.8Z" transform="translate(-162.143 -383.092)"/><path class="d" d="M795.6,341.552v33.242l28.863,16.652,28.8-16.652V341.552l-28.8-16.652Z" transform="translate(-766.799 -208.586)"/><path class="d" d="M702.1,503.452v33.3l28.863,16.652,28.8-16.652v-33.3l-28.8-16.652Z" transform="translate(-615.635 -470.395)"/></g><g class="e" transform="translate(1283.051 598.341)"><path class="f" d="M899.964,455.455v-33.3l-28.8-16.652L842.3,422.152v33.3l28.863,16.652Z" transform="translate(-640.507 -272.349)"/><path class="f" d="M853.264,374.793V341.552L824.4,324.9l-28.8,16.652v33.242l28.8,16.651Z" transform="translate(-622.608 -241.457)"/><path class="f" d="M759.764,320.855v-33.3L730.9,270.9l-28.8,16.652v33.3l28.8,16.652Z" transform="translate(-586.772 -220.76)"/><path class="f" d="M759.764,428.793v-33.3L730.9,378.9l-28.8,16.59v33.3l28.8,16.652Z" transform="translate(-586.772 -262.154)"/><path class="f" d="M712.964,347.493v-33.3l-28.8-16.59L655.3,314.19v33.3l28.863,16.652Z" transform="translate(-568.835 -230.994)"/><path class="f" d="M666.264,320.855v-33.3L637.4,270.9l-28.8,16.652v33.3l28.8,16.652Z" transform="translate(-550.936 -220.76)"/><path class="f" d="M712.964,401.455v-33.3l-28.8-16.652L655.3,368.152v33.3l28.863,16.652Z" transform="translate(-568.835 -251.652)"/><path class="f" d="M899.964,240.193V206.952l-28.8-16.652L842.3,206.952v33.241l28.863,16.652Z" transform="translate(-640.507 -189.868)"/><path class="f" d="M853.264,266.855v-33.3L824.4,216.9l-28.8,16.652v33.3l28.8,16.652Z" transform="translate(-622.608 -200.063)"/><path class="f" d="M806.464,239.555v-33.3l-28.8-16.652L748.8,206.252v33.3l28.863,16.652Z" transform="translate(-604.671 -189.6)"/><path class="f" d="M806.464,347.493v-33.3l-28.8-16.59L748.8,314.19v33.3l28.863,16.652Z" transform="translate(-604.671 -230.994)"/><path class="f" d="M666.264,428.793v-33.3L637.4,378.9l-28.8,16.59v33.3l28.8,16.652Z" transform="translate(-550.936 -262.154)"/><path class="f" d="M619.5,455.455v-33.3L590.7,405.5l-28.8,16.652v33.3l28.8,16.652Z" transform="translate(-533.037 -272.349)"/><path class="f" d="M853.264,482.755v-33.3L824.4,432.8l-28.8,16.652v33.3l28.8,16.652Z" transform="translate(-622.608 -282.812)"/><path class="f" d="M759.764,482.755v-33.3L730.9,432.8l-28.8,16.652v33.3l28.8,16.652Z" transform="translate(-586.772 -282.812)"/><path class="f" d="M946.764,536.755v-33.3L917.9,486.8l-28.8,16.652v33.3l28.8,16.652Z" transform="translate(-658.445 -303.509)"/><path class="f" d="M899.964,563.393V530.152l-28.8-16.652L842.3,530.152v33.242l28.863,16.652Z" transform="translate(-640.507 -313.743)"/><path class="f" d="M946.764,428.793v-33.3L917.9,378.9l-28.8,16.59v33.3l28.8,16.652Z" transform="translate(-658.445 -262.154)"/><path class="f" d="M993.464,347.493v-33.3l-28.8-16.59L935.8,314.19v33.3l28.863,16.652Z" transform="translate(-676.344 -230.994)"/><path class="f" d="M572.764,482.755v-33.3l-28.8-16.652L515.1,449.452v33.3l28.863,16.652Z" transform="translate(-515.1 -282.812)"/><path class="f" d="M946.764,374.793V341.552L917.9,324.9l-28.8,16.652v33.242l28.8,16.651Z" transform="translate(-658.445 -241.457)"/><path class="f" d="M853.264,536.755v-33.3L824.4,486.8l-28.8,16.652v33.3l28.8,16.652Z" transform="translate(-622.608 -303.509)"/></g><g class="e" transform="translate(1005.66 565.14)"><path class="f" d="M515,127.158v37.455l32.461,18.728,32.392-18.728V127.158L547.461,108.5Z" transform="translate(-450.147 -33.59)"/><path class="f" d="M468.2,46.628V84.083l32.392,18.658,32.461-18.658V46.628L500.592,27.9Z" transform="translate(-370.886 102.916)"/><path class="f" d="M374.7-7.372V30.013l32.392,18.728,32.461-18.728V-7.372L407.092-26.1Z" transform="translate(-212.533 194.371)"/><path class="f" d="M374.7,100.528v37.455l32.392,18.728,32.461-18.728V100.528L407.092,81.8Z" transform="translate(-212.533 11.56)"/><path class="f" d="M328,19.228V56.683L360.461,75.41l32.392-18.728V19.228L360.461.5Z" transform="translate(-133.441 149.251)"/><path class="f" d="M281.3-7.372V30.013l32.392,18.728,32.392-18.728V-7.372L313.692-26.1Z" transform="translate(-54.28 194.371)"/><path class="f" d="M328,73.228v37.455l32.461,18.728,32.392-18.728V73.228L360.461,54.5Z" transform="translate(-133.441 57.796)"/><path class="f" d="M515-88.072v37.455L547.461-31.89l32.392-18.728V-88.072L547.461-106.8Z" transform="translate(-450.147 330.976)"/><path class="f" d="M468.2-61.372v37.455L500.592-5.19l32.461-18.728V-61.372L500.592-80.1Z" transform="translate(-370.886 285.757)"/><path class="f" d="M421.5-88.672v37.386l32.461,18.728,32.392-18.728V-88.672L453.961-107.4Z" transform="translate(-291.794 332.062)"/><path class="f" d="M421.5,19.228V56.683L453.961,75.41l32.392-18.728V19.228L453.961.5Z" transform="translate(-291.794 149.251)"/><path class="f" d="M281.3,100.528v37.455l32.392,18.728,32.392-18.728V100.528L313.692,81.8Z" transform="translate(-54.28 11.56)"/><path class="f" d="M234.5,127.158v37.455l32.392,18.728,32.461-18.728V127.158L266.892,108.5Z" transform="translate(24.912 -33.59)"/><path class="f" d="M468.2,154.528v37.455l32.392,18.728,32.461-18.728V154.528L500.592,135.8Z" transform="translate(-370.886 -79.895)"/><path class="f" d="M374.7,154.528v37.455l32.392,18.728,32.461-18.728V154.528L407.092,135.8Z" transform="translate(-212.533 -79.895)"/><path class="f" d="M561.7,208.528v37.386l32.392,18.728,32.461-18.728V208.528L594.092,189.8Z" transform="translate(-529.239 -171.28)"/><path class="f" d="M515,235.128v37.455l32.461,18.728,32.392-18.728V235.128L547.461,216.4Z" transform="translate(-450.147 -216.4)"/><path class="f" d="M561.7,100.528v37.455l32.392,18.728,32.461-18.728V100.528L594.092,81.8Z" transform="translate(-529.239 11.56)"/><path class="f" d="M608.5,19.228V56.683L640.961,75.41l32.392-18.728V19.228L640.961.5Z" transform="translate(-608.5 149.251)"/><path class="f" d="M187.8,154.528v37.455l32.461,18.728,32.392-18.728V154.528L220.261,135.8Z" transform="translate(104.004 -79.895)"/><path class="f" d="M561.7,46.628V84.083l32.392,18.658,32.461-18.658V46.628L594.092,27.9Z" transform="translate(-529.239 102.916)"/><path class="f" d="M468.2,208.528v37.386l32.392,18.728,32.461-18.728V208.528L500.592,189.8Z" transform="translate(-370.886 -171.28)"/></g><g class="e" transform="translate(677.196 544.213)"><path class="f" d="M515,128.462v40.072l34.729,20.036,34.655-20.036V128.462L549.729,108.5Z" transform="translate(-445.615 -28.355)"/><path class="f" d="M468.2,47.936V88.008l34.655,19.962,34.729-19.962V47.936L502.855,27.9Z" transform="translate(-364.086 112.056)"/><path class="f" d="M374.7-6.064v40L409.355,53.97l34.729-20.036v-40L409.355-26.1Z" transform="translate(-201.202 206.128)"/><path class="f" d="M374.7,101.836v40.072l34.655,20.036,34.729-20.036V101.836L409.355,81.8Z" transform="translate(-201.202 18.084)"/><path class="f" d="M328,20.536V60.608l34.729,20.036,34.655-20.036V20.536L362.729.5Z" transform="translate(-119.847 159.715)"/><path class="f" d="M281.3-6.064v40L315.955,53.97,350.61,33.934v-40L315.955-26.1Z" transform="translate(-38.417 206.128)"/><path class="f" d="M328,74.536v40.072l34.729,20.036,34.655-20.036V74.536L362.729,54.5Z" transform="translate(-119.847 65.643)"/><path class="f" d="M515-86.764v40.072l34.729,20.036,34.655-20.036V-86.764L549.729-106.8Z" transform="translate(-445.615 346.64)"/><path class="f" d="M468.2-60.064v40.072L502.855.045l34.729-20.036V-60.064L502.855-80.1Z" transform="translate(-364.086 300.126)"/><path class="f" d="M421.5-87.364v40L456.229-27.33l34.655-20.036v-40L456.229-107.4Z" transform="translate(-282.731 347.759)"/><path class="f" d="M421.5,20.536V60.608l34.729,20.036,34.655-20.036V20.536L456.229.5Z" transform="translate(-282.731 159.715)"/><path class="f" d="M281.3,101.836v40.072l34.655,20.036,34.655-20.036V101.836L315.955,81.8Z" transform="translate(-38.417 18.084)"/><path class="f" d="M234.5,128.462v40.072l34.655,20.036,34.729-20.036V128.462L269.155,108.5Z" transform="translate(43.038 -28.355)"/><path class="f" d="M468.2,155.836v40.072l34.655,20.036,34.729-20.036V155.836L502.855,135.8Z" transform="translate(-364.086 -75.988)"/><path class="f" d="M374.7,155.836v40.072l34.655,20.036,34.729-20.036V155.836L409.355,135.8Z" transform="translate(-201.202 -75.988)"/><path class="f" d="M561.7,209.836v40l34.655,20.036,34.729-20.036v-40L596.355,189.8Z" transform="translate(-526.971 -169.986)"/><path class="f" d="M515,236.436v40.072l34.729,20.036,34.655-20.036V236.436L549.729,216.4Z" transform="translate(-445.615 -216.4)"/><path class="f" d="M561.7,101.836v40.072l34.655,20.036,34.729-20.036V101.836L596.355,81.8Z" transform="translate(-526.971 18.084)"/><path class="f" d="M608.5,20.536V60.608l34.729,20.036,34.655-20.036V20.536L643.229.5Z" transform="translate(-608.5 159.715)"/><path class="f" d="M187.8,155.836v40.072l34.729,20.036,34.655-20.036V155.836L222.529,135.8Z" transform="translate(124.393 -75.988)"/><path class="f" d="M561.7,47.936V88.008l34.655,19.962,34.729-19.962V47.936L596.355,27.9Z" transform="translate(-526.971 112.056)"/><path class="f" d="M468.2,209.836v40l34.655,20.036,34.729-20.036v-40L502.855,189.8Z" transform="translate(-364.086 -169.986)"/></g><g class="e" transform="translate(-0.26 565.14)"><path class="f" d="M159.246,462.394v-37.44L126.738,406.2,94.3,424.955v37.44l32.438,18.755Z" transform="translate(132.978 -256.233)"/><path class="f" d="M112.446,381.764V344.255L80.008,325.5,47.5,344.255v37.509l32.508,18.755Z" transform="translate(147.27 -231.588)"/><path class="f" d="M18.946,327.794v-37.44L-13.492,271.6-46,290.355v37.44l32.508,18.755Z" transform="translate(175.823 -215.128)"/><path class="f" d="M18.946,435.764V398.255L-13.492,379.5-46,398.255v37.509l32.508,18.755Z" transform="translate(175.823 -248.079)"/><path class="f" d="M-27.754,354.464V316.955L-60.262,298.2-92.7,316.955v37.509l32.438,18.755Z" transform="translate(190.085 -223.251)"/><path class="f" d="M-74.554,327.794v-37.44L-106.992,271.6-139.5,290.355v37.44l32.508,18.755Z" transform="translate(204.377 -215.128)"/><path class="f" d="M-27.754,408.464V370.955L-60.262,352.2-92.7,370.955v37.509l32.438,18.755Z" transform="translate(190.085 -239.742)"/><path class="f" d="M159.246,247.164V209.655L126.738,190.9,94.3,209.655v37.509l32.438,18.755Z" transform="translate(132.978 -190.483)"/><path class="f" d="M112.446,273.864V236.355L80.008,217.6,47.5,236.355v37.509l32.508,18.685Z" transform="translate(147.27 -198.637)"/><path class="f" d="M65.746,246.494v-37.44L33.238,190.3.8,209.055v37.44l32.438,18.755Z" transform="translate(161.531 -190.3)"/><path class="f" d="M65.746,354.464V316.955L33.238,298.2.8,316.955v37.509l32.438,18.755Z" transform="translate(161.531 -223.251)"/><path class="f" d="M-74.554,435.764V398.255L-106.992,379.5-139.5,398.255v37.509l32.508,18.755Z" transform="translate(204.377 -248.079)"/><path class="f" d="M-121.254,462.394v-37.44L-153.762,406.2-186.2,424.955v37.44l32.438,18.755Z" transform="translate(218.638 -256.233)"/><path class="f" d="M112.446,489.764V452.255L80.008,433.5,47.5,452.255v37.509l32.508,18.685Z" transform="translate(147.27 -264.57)"/><path class="f" d="M18.946,489.764V452.255L-13.492,433.5-46,452.255v37.509l32.508,18.685Z" transform="translate(175.823 -264.57)"/><path class="f" d="M205.946,543.694v-37.44L173.508,487.5,141,506.255v37.44l32.508,18.755Z" transform="translate(118.716 -281.061)"/><path class="f" d="M159.246,570.364V532.854L126.738,514.1,94.3,532.854v37.509l32.438,18.755Z" transform="translate(132.978 -289.184)"/><path class="f" d="M205.946,435.764V398.255L173.508,379.5,141,398.255v37.509l32.508,18.755Z" transform="translate(118.716 -248.079)"/><path class="f" d="M252.746,354.464V316.955L220.238,298.2,187.8,316.955v37.509l32.438,18.755Z" transform="translate(104.424 -223.251)"/><path class="f" d="M-168.023,489.764V452.255L-200.462,433.5-232.9,452.255v37.509l32.438,18.685Z" transform="translate(232.9 -264.57)"/><path class="f" d="M205.946,381.764V344.255L173.508,325.5,141,344.255v37.509l32.508,18.755Z" transform="translate(118.716 -231.588)"/><path class="f" d="M112.446,543.694v-37.44L80.008,487.5,47.5,506.255v37.44l32.508,18.755Z" transform="translate(147.27 -281.061)"/></g><g class="e" transform="translate(300.74 544.213)"><path class="f" d="M163.778,466.315V426.263L129,406.2,94.3,426.263v40.052L129,486.378Z" transform="translate(148.835 -245.769)"/><path class="f" d="M116.978,385.689V345.563L82.276,325.5,47.5,345.563v40.126l34.776,20.063Z" transform="translate(160.859 -225.036)"/><path class="f" d="M23.478,331.715V291.663l-34.7-20.063L-46,291.663v40.052l34.776,20.063Z" transform="translate(184.881 -211.188)"/><path class="f" d="M23.478,439.689V399.563l-34.7-20.063L-46,399.563v40.126l34.776,20.063Z" transform="translate(184.881 -238.91)"/><path class="f" d="M-23.222,358.389V318.263L-58,298.2l-34.7,20.063v40.126L-58,378.453Z" transform="translate(196.88 -218.022)"/><path class="f" d="M-70.022,331.715V291.663l-34.7-20.063L-139.5,291.663v40.052l34.776,20.063Z" transform="translate(208.904 -211.188)"/><path class="f" d="M-23.222,412.389V372.263L-58,352.2l-34.7,20.063v40.126L-58,432.453Z" transform="translate(196.88 -231.896)"/><path class="f" d="M163.778,251.089V210.963L129,190.9,94.3,210.963v40.126L129,271.152Z" transform="translate(148.835 -190.454)"/><path class="f" d="M116.978,277.789V237.663L82.276,217.6,47.5,237.663v40.126l34.776,19.989Z" transform="translate(160.859 -197.314)"/><path class="f" d="M70.278,250.415V210.363L35.5,190.3.8,210.363v40.052l34.7,20.063Z" transform="translate(172.858 -190.3)"/><path class="f" d="M70.278,358.389V318.263L35.5,298.2.8,318.263v40.126l34.7,20.063Z" transform="translate(172.858 -218.022)"/><path class="f" d="M-70.022,439.689V399.563l-34.7-20.063L-139.5,399.563v40.126l34.776,20.063Z" transform="translate(208.904 -238.91)"/><path class="f" d="M-116.722,466.315V426.263L-151.5,406.2l-34.7,20.063v40.052l34.7,20.063Z" transform="translate(220.902 -245.769)"/><path class="f" d="M116.978,493.689V453.563L82.276,433.5,47.5,453.563v40.126l34.776,19.989Z" transform="translate(160.859 -252.783)"/><path class="f" d="M23.478,493.689V453.563l-34.7-20.063L-46,453.563v40.126l34.776,19.989Z" transform="translate(184.881 -252.783)"/><path class="f" d="M210.478,547.615V507.563l-34.7-20.063L141,507.563v40.052l34.776,20.063Z" transform="translate(136.837 -266.657)"/><path class="f" d="M163.778,574.289V534.163L129,514.1,94.3,534.163v40.126L129,594.352Z" transform="translate(148.835 -273.491)"/><path class="f" d="M210.478,439.689V399.563l-34.7-20.063L141,399.563v40.126l34.776,20.063Z" transform="translate(136.837 -238.91)"/><path class="f" d="M257.278,358.389V318.263L222.5,298.2l-34.7,20.063v40.126l34.7,20.063Z" transform="translate(124.813 -218.022)"/><path class="f" d="M-163.5,493.689V453.563L-198.2,433.5l-34.7,20.063v40.126l34.7,19.989Z" transform="translate(232.9 -252.783)"/><path class="f" d="M210.478,385.689V345.563l-34.7-20.063L141,345.563v40.126l34.776,20.063Z" transform="translate(136.837 -225.036)"/><path class="f" d="M116.978,547.615V507.563L82.276,487.5,47.5,507.563v40.052l34.776,20.063Z" transform="translate(160.859 -266.657)"/></g><g class="g" transform="translate(-0.26)"><path class="d" d="M159.246,246.494v-37.44L126.738,190.3,94.3,209.055v37.44l32.438,18.755Z" transform="translate(132.978 -40.333)"/><path class="d" d="M112.446,165.864V128.355L80.008,109.6,47.5,128.355v37.509l32.508,18.755Z" transform="translate(147.27 -15.688)"/><path class="d" d="M18.946,111.894V74.455L-13.492,55.7-46,74.455v37.44l32.508,18.755Z" transform="translate(175.823 0.772)"/><path class="d" d="M18.946,219.864V182.355L-13.492,163.6-46,182.355v37.509l32.508,18.755Z" transform="translate(175.823 -32.179)"/><path class="d" d="M-27.754,138.564V101.055L-60.262,82.3-92.7,101.055v37.509l32.438,18.755Z" transform="translate(190.085 -7.351)"/><path class="d" d="M-74.554,111.894V74.455L-106.992,55.7-139.5,74.455v37.44l32.508,18.755Z" transform="translate(204.377 0.772)"/><path class="d" d="M-27.754,192.564V155.055L-60.262,136.3-92.7,155.055v37.509l32.438,18.685Z" transform="translate(190.085 -23.842)"/><path class="d" d="M159.246,31.264V-6.245L126.738-25,94.3-6.245V31.264l32.438,18.755Z" transform="translate(132.978 25.417)"/><path class="d" d="M112.446,57.964V20.455L80.008,1.7,47.5,20.455V57.964L80.008,76.649Z" transform="translate(147.27 17.263)"/><path class="d" d="M65.746,30.594V-6.915L33.238-25.6.8-6.915V30.594L33.238,49.349Z" transform="translate(161.531 25.6)"/><path class="d" d="M65.746,138.564V101.055L33.238,82.3.8,101.055v37.509l32.438,18.755Z" transform="translate(161.531 -7.351)"/><path class="d" d="M-74.554,219.864V182.355L-106.992,163.6-139.5,182.355v37.509l32.508,18.755Z" transform="translate(204.377 -32.179)"/><path class="d" d="M-121.254,246.494v-37.44L-153.762,190.3-186.2,209.055v37.44l32.438,18.755Z" transform="translate(218.638 -40.333)"/><path class="d" d="M112.446,273.864V236.355L80.008,217.6,47.5,236.355v37.509l32.508,18.685Z" transform="translate(147.27 -48.67)"/><path class="d" d="M18.946,273.864V236.355L-13.492,217.6-46,236.355v37.509l32.508,18.685Z" transform="translate(175.823 -48.67)"/><path class="d" d="M205.946,327.794v-37.44L173.508,271.6,141,290.355v37.44l32.508,18.755Z" transform="translate(118.716 -65.161)"/><path class="d" d="M159.246,354.464V316.955L126.738,298.2,94.3,316.955v37.509l32.438,18.755Z" transform="translate(132.978 -73.284)"/><path class="d" d="M205.946,219.864V182.355L173.508,163.6,141,182.355v37.509l32.508,18.755Z" transform="translate(118.716 -32.179)"/><path class="d" d="M252.746,138.564V101.055L220.238,82.3,187.8,101.055v37.509l32.438,18.755Z" transform="translate(104.424 -7.351)"/><path class="d" d="M-168.023,273.864V236.355L-200.462,217.6-232.9,236.355v37.509l32.438,18.685Z" transform="translate(232.9 -48.67)"/><path class="d" d="M205.946,165.864V128.355L173.508,109.6,141,128.355v37.509l32.508,18.755Z" transform="translate(118.716 -15.688)"/><path class="d" d="M112.446,327.794v-37.44L80.008,271.6,47.5,290.355v37.44l32.508,18.755Z" transform="translate(147.27 -65.161)"/></g></g></svg>