<svg xmlns="http://www.w3.org/2000/svg" width="215" height="43" viewBox="0 0 215 43"><g><g><g><path fill="#257ffc" d="M8.148 19.298c1.307-.157 5.806-.284 9.911-.215 6.532.11 9.534-.162 10.504-.808.298-.167 3.535-2.054 3.861-5.773a7.278 7.278 0 0 0-1.49-5 7.46 7.46 0 0 0-2.955-2.173c-.331-.182-1.166-.447-2.846-.467-2.045-.05-3.379-.095-4.989-.11H17.79c-1.485 0-2.711 0-3.556.013a15.399 15.399 0 0 0-4.956.96 13.961 13.961 0 0 1 3.246-3.427C14.494.778 16.33.309 18.472.158c3.572-.182 5.297-.182 7.134-.107 2.482.206 4.109.47 6.017 1.508a11.535 11.535 0 0 1 3.08 2.495 12.247 12.247 0 0 1 2.954 6.406c.208 1.578.102 3.18-.313 4.716a11.758 11.758 0 0 1-3.666 5.847c-2.415 2.05-4.367 2.787-8.51 2.91-1.858.044-2.453.028-9.993.028-6.113.011-8.996.016-10.691.997-2.22 1.28-4.422 4.036-4.467 3.981-.264-.262 2.61-9.057 8.131-9.641z"/></g><g><path fill="#222" d="M27.812 11.89c-.013-1.579-1.54-2.547-2.548-2.547H10.783a2.875 2.875 0 0 0-1.385.313c-.291.14-.563.318-.806.531a11.981 11.981 0 0 0-1.43 1.602c-.39.514-.69.984-.846 1.239a26.789 26.789 0 0 0-1.892 3.704 8.122 8.122 0 0 1 3.362-1.865c.672-.182 1.498-.307 3.082-.386h14.056c.193.008.386 0 .577-.023 1.324-.228 2.32-1.294 2.31-2.568z"/></g><g><path fill="#257ffc" d="M87.171 28.941h-4.05V2.681l-.05-1.775L80.22.882l.049-.7L87.164 0z"/></g><g><path fill="#257ffc" d="M88.565 9.037c0 .364-.013.708-.02 1.063l2.79-.084.027.688v18.237h4.097l.033-20.519z"/></g><g><path fill="#257ffc" d="M89.897 2.798a2.797 2.797 0 1 1 5.593 0 2.797 2.797 0 0 1-5.593 0z"/></g><g><path fill="#257ffc" d="M76.292 19.265c0 3.744-1.319 8.217-5.591 8.217s-6.274-4.765-6.274-9.189c0-5.35 2.38-8.404 5.59-8.404 4.618 0 6.272 5.244 6.275 9.376zm4.178-.777c0-5.98-4.425-10.066-9.87-10.066-5.738 0-10.357 4.376-10.357 10.503 0 6.077 4.375 10.016 9.967 10.016 6.075 0 10.26-4.376 10.26-10.453z"/></g><g><path fill="#257ffc" d="M56.069 1.039C53.656-.301 50.909.033 49.325.05L38.003.18l.036 1.933h3.275c.01.375.016.754.018 1.136.01.782.01 1.552 0 2.31v23.377h4.23l-.034-12.072v-.43h.011v-1.379c0-3.715-.003-7.431-.009-11.148l-.047-2.052h.546c2.401 0 2.547-.046 3.01-.026.465.02 2.215.119 3.782 1.234.605.433 1.129.97 1.546 1.587a7.642 7.642 0 0 1 1.141 3.662c-.087.473.082 3.7-2.247 5.508-1.206.933-2.722 1.079-4.3 1.254-.845.092-1.698.112-2.547.058v1.526l4.578-.016a10.386 10.386 0 0 0 4.063-.963c.848-.394 2.547-1.2 3.792-3.093a8.268 8.268 0 0 0 1.335-2.853c.732-4.963-2.112-7.552-4.113-8.695z"/></g><g><path fill="#222" d="M120.455 9.037c0 .364-.014.708-.02 1.063l2.788-.084.029.688v18.237h4.096l.034-20.519z"/></g><g><path fill="#222" d="M121.787 2.798a2.797 2.797 0 1 1 5.593 0 2.797 2.797 0 0 1-5.593 0z"/></g><g><path fill="#222" d="M210.123 19.298a26.239 26.239 0 0 1-.017 5.445c-1.09 2.082-4.953 3.368-9.185 1.782-.398-.199-2.904-1.492-2.782-3.224.053-.874.78-1.636.963-1.84 2.247-2.682 9.583-2.43 11.02-2.169zm4.707 3.997c.016-5.293.13-7.402-.133-9.812-.27-1.556-.74-2.66-1.782-3.64-2.198-2.068-5.682-1.555-8.602-1.21a20.542 20.542 0 0 0-6.712 1.986l.036.964c.898-.383 1.833-.67 2.791-.857 3.164-.47 5.326-.295 5.64-.258.616.07 2.33.147 3.345 1.193.253.262.595.728.777 2.393.109.962-.086 4.037-.086 4.037-.076 0-14.678-1.004-15.296 5.506-.119.7.238 1.862 1.139 2.93 1.85 2.183 5.222 2.414 6.945 2.414 5.012 0 6.96-1.68 7.46-2.183v2.183h4.548l-.034-2.824c-.036-2.35-.036-2.629-.036-2.822z"/></g><g><path fill="#222" d="M189.791 28.941a16.337 16.337 0 0 0-.149-2.807v-.046c-1.139.546-3.945 2.846-7.367 2.846-2.995 0-5.752-1.378-5.752-6.057l-.014-12.591-3.093-.093c.12-.39.24-.78.364-1.17l6.55-.642v13.768c0 3.213 1.758 4.634 4.086 4.634 2.088.004 4-1.167 4.946-3.028.236-.413.331-1.284.331-2.432v-9.087l-.03-1.94-3.243-.092.316-1.218c2.158-.278 6.762-.605 6.762-.605v16.75c0 1.278-.02 2.548-.057 3.81z"/></g><g><path fill="#222" d="M156.67 11.248c1.149-.951 2.643-.906 3.172-.891.53.014 1.843.052 2.912.935 1.6 1.323 1.51 3.602 1.464 4.72-.02.515-.182 4.033-2.447 5.276a4.25 4.25 0 0 1-3.82.075c-2.35-1.161-2.625-4.853-2.654-5.346-.076-1.173-.204-3.457 1.372-4.769zm-1.611 21.045c1.47-.828 2.354-.388 6.488-.248 3.313.113 4.289-.116 5.38.78.192.159 1.287 1.063 1.314 2.3.051 2.364-3.839 4.457-7.021 4.846-.577.064-4.837.524-7.064-2.184-.31-.378-1.419-1.724-1.068-3.244.313-1.32 1.541-2.018 1.97-2.25zm10.396-22.499c-1.224-.817-3.57-1.377-5.56-1.377-6.683 0-8.977 4.234-8.977 7.6 0 4.183 2.652 6.12 4.641 6.683v.102c-2.34.968-3.977 2.804-3.977 4.54 0 2.04 2.032 3.471 4.294 3.577-2.755 0-5.459 2.602-5.459 4.947v.051c0 4.542 4.334 6.583 9.385 6.583 4.898 0 10.814-2.092 10.814-8.06 0-.674.061-2.371-1.092-3.758-1.874-2.249-5.22-1.761-5.502-1.717-3.206.178-4.858.069-6.005-.222-1.617-.408-2.602-.992-3.033-1.83a1.716 1.716 0 0 1-.205-.74c-.015-.82.664-1.442 1.31-2.02.4-.358.838-.672 1.306-.936.729.077 1.462.111 2.194.102 4.132 0 8.774-1.887 8.774-7.295 0-.97-.318-2.04-.637-2.869a12.923 12.923 0 0 0-.638-1.416 15.315 15.315 0 0 1 5.618-.442v-1.82a47.239 47.239 0 0 0-3.826.365l-2.548.458z"/></g><g><path fill="#222" d="M149.216 28.941h-3.735V16.099c-.024-.466-.193-2.864-1.898-4.245-1.705-1.38-4.256-.671-5.213-.433a9.408 9.408 0 0 0-2.254.89c.033 5.543.065 11.087.096 16.63h-3.735v-18.94l-3.357.088V9.017l6.914-.636-.016 2.91a9.59 9.59 0 0 1 2.878-1.948c.932-.386 1.91-.644 2.911-.768.623-.094 1.092-.123 1.372-.143a6.732 6.732 0 0 1 1.84.123c.91.182 1.686.44 2.107.82 2.432 1.842 2.11 5.942 2.09 6.227z"/></g><g><path fill="#222" d="M119.398 22.626c-1.224 4.426-3.579 4.066-3.579 4.066s-2.985.09-4.523.111c-1.377.018-2.658.013-3.748.011-.866 0-1.59 0-2.105-.01V.001l-3.898.094h-.364l-3.056.075-.055.686 3.028.024.03 1.033-.058 2.002v21.146c-.043.962.097 3.857.104 3.857 2.655 0 6.216.048 17.154 0h.9l1.14-6.4z"/></g></g></g></svg>